<svg xmlns="http://www.w3.org/2000/svg" version="1.1" xmlns:xlink="http://www.w3.org/1999/xlink" xmlns:svgjs="http://svgjs.dev/svgjs" width="2000" height="1500" viewBox="0 0 2000 1500"><rect width="2000" height="1500" fill="#ed2647"></rect><g transform="matrix(0.75,0,0,0.75,249.09090944124432,517.6859692438987)"><svg viewBox="0 0 396 123" data-background-color="#ed2647" preserveAspectRatio="xMidYMid meet" height="621" width="2000" xmlns="http://www.w3.org/2000/svg" xmlns:xlink="http://www.w3.org/1999/xlink"><g id="tight-bounds" transform="matrix(1,0,0,1,0.24000009248851484,-0.1481463234108844)"><svg viewBox="0 0 395.52 123.29629279039861" height="123.29629279039861" width="395.52"><g><svg viewBox="0 0 622.8493073198456 194.16214239382242" height="123.29629279039861" width="395.52"><g transform="matrix(1,0,0,1,0,26.834275830115843)"><svg viewBox="0 0 395.52 140.49359073359074" height="140.49359073359074" width="395.52"><g id="textblocktransform"><svg viewBox="0 0 395.52 140.49359073359074" height="140.49359073359074" width="395.52" id="textblock"><g><svg viewBox="0 0 395.52 140.49359073359074" height="140.49359073359074" width="395.52"><g transform="matrix(1,0,0,1,0,0)"><svg width="395.52" viewBox="3.9000000953674316 -35.5 129.49000549316406 46" height="140.49359073359074" data-palette-color="#8d021f"><path d="M3.9 0L3.9-35.05 13.3-35.05Q18.95-35.05 21.93-31.95 24.9-28.85 24.9-23.7L24.9-23.7 24.9-10Q24.9 0 14.3 0L14.3 0 3.9 0ZM21.3-24.2Q21.3-27.95 19.13-29.78 16.95-31.6 13.8-31.6L13.8-31.6 7.5-31.6 7.5-3.25 13.5-3.25Q16.85-3.25 19.07-4.5 21.3-5.75 21.3-9.5L21.3-9.5 21.3-24.2ZM34.8-31.4Q33.95-31.4 33.32-32.02 32.7-32.65 32.7-33.45L32.7-33.45Q32.7-34.25 33.32-34.88 33.95-35.5 34.8-35.5L34.8-35.5Q35.6-35.5 36.2-34.9 36.8-34.3 36.8-33.45L36.8-33.45Q36.8-32.6 36.2-32 35.6-31.4 34.8-31.4L34.8-31.4ZM32.9 0L32.9-25.05 36.5-25.05 36.5 0 32.9 0ZM72.3 0L72.3-16.55Q72.3-19.45 70.97-20.8 69.65-22.15 67.4-22.15L67.4-22.15Q65.65-22.15 63.5-21.35L63.5-21.35 61.95-20.6Q62.59-19.2 62.59-17.45L62.59-17.45 62.59 0 59 0 59-16.5Q59-19.4 57.52-20.75 56.05-22.1 53.7-22.1L53.7-22.1Q51.05-22.1 48.3-20.6L48.3-20.6 48.3 0 44.7 0 44.7-25.05 48.09-25.05 48.15-23.8Q51.05-25.4 54.05-25.4L54.05-25.4Q57.75-25.4 60.05-23.05L60.05-23.05Q60.75-23.45 62.15-24.15L62.15-24.15Q65.09-25.5 67.84-25.5L67.84-25.5Q71.4-25.5 73.65-23.33 75.9-21.15 75.9-17.3L75.9-17.3 75.9 0 72.3 0ZM81.54 10.5L81.54-25.05 85.04-25.05 84.99-23.15Q86.04-24.25 87.64-24.85 89.24-25.45 90.89-25.45L90.89-25.45Q95.54-25.45 97.97-22.75 100.39-20.05 100.39-15.75L100.39-15.75 100.39-8.8Q100.39-4.25 97.84-1.83 95.29 0.6 91.09 0.6L91.09 0.6Q89.04 0.6 87.67 0.13 86.29-0.35 85.14-1.5L85.14-1.5 85.14 9.4 81.54 10.5ZM96.79-15.95Q96.79-19.1 95.17-20.58 93.54-22.05 91.09-22.05L91.09-22.05Q88.59-22.05 86.92-20.6 85.24-19.15 85.14-16.2L85.14-16.2 85.14-8.65Q85.14-5.8 86.69-4.33 88.24-2.85 91.09-2.85L91.09-2.85Q93.69-2.85 95.24-4.38 96.79-5.9 96.79-8.85L96.79-8.85 96.79-15.95ZM106.04 0L106.04-35 109.64-35 109.64 0 106.04 0ZM132.14-1.75Q130.34-0.6 128.04 0 125.74 0.6 123.44 0.6L123.44 0.6Q119.74 0.6 117.56-1.23 115.39-3.05 115.39-6.7L115.39-6.7 115.39-16.95Q115.39-21 117.91-23.25 120.44-25.5 124.59-25.5L124.59-25.5Q128.74-25.5 131.06-23.28 133.39-21.05 133.39-17.1L133.39-17.1 133.39-10.25 118.99-9.5 118.99-6.9Q118.99-4.8 120.29-3.75 121.59-2.7 123.84-2.7L123.84-2.7Q127.09-2.7 130.79-4.7L130.79-4.7 132.14-1.75ZM129.74-17.3Q129.74-19.95 128.09-21.08 126.44-22.2 124.54-22.2L124.54-22.2Q122.04-22.2 120.51-20.85 118.99-19.5 118.99-16.9L118.99-16.9 118.99-12.9 129.74-13.45 129.74-17.3Z" opacity="1" transform="matrix(1,0,0,1,0,0)" fill="#8d021f" class="wordmark-text-0" data-fill-palette-color="primary" id="text-0"></path></svg></g></svg></g></svg></g></svg></g><g transform="matrix(1,0,0,1,428.6871649260232,0)"><svg viewBox="0 0 194.16214239382242 194.16214239382242" height="194.16214239382242" width="194.16214239382242"><g><svg xmlns="http://www.w3.org/2000/svg" xmlns:xlink="http://www.w3.org/1999/xlink" version="1.1" x="0" y="0" viewBox="2.5 2.5840001106262207 95 95" enable-background="new 0 0 100 100" xml:space="preserve" height="194.16214239382242" width="194.16214239382242" class="icon-icon-0" data-fill-palette-color="accent" id="icon-0"><g fill="#5e1914" data-fill-palette-color="accent"><path d="M50 2.584c-26.192 0-47.5 21.308-47.5 47.5 0 26.19 21.308 47.5 47.5 47.5 26.19 0 47.5-21.31 47.5-47.5C97.5 23.892 76.19 2.584 50 2.584zM50 90.458c-22.264 0-40.376-18.112-40.376-40.374C9.624 27.821 27.736 9.708 50 9.708c22.262 0 40.374 18.112 40.374 40.375C90.374 72.346 72.262 90.458 50 90.458z" fill="#5e1914" data-fill-palette-color="accent"></path><path d="M14 48v3.693c0 19.802 16.701 36.528 36.5 36.528S87 71.495 87 51.693V48H14zM29.646 72.782c5.462-5.229 12.746-8.213 20.354-8.213 7.602 0 14.889 2.986 20.352 8.214C65.011 77.946 57.811 81.191 50 81.191 42.187 81.191 34.986 77.946 29.646 72.782zM74.895 67.137C68.156 60.881 59.256 57.391 50 57.391c-9.265 0-18.16 3.461-24.897 9.719C22.815 63.516 21.266 60 20.722 55h58.557C78.734 60 77.185 63.542 74.895 67.137z" fill="#5e1914" data-fill-palette-color="accent"></path><path d="M31.594 31.64c4.061 0 7.364 2.36 7.364 7.36h7.124c0-8-6.499-14.485-14.488-14.485S17.105 31 17.105 39h7.125C24.23 34 27.534 31.64 31.594 31.64z" fill="#5e1914" data-fill-palette-color="accent"></path><path d="M68.405 31.64c4.061 0 7.363 2.36 7.363 7.36h7.126c0-8-6.5-14.485-14.489-14.485C60.418 24.515 53.92 31 53.92 39h7.126C61.046 34 64.347 31.64 68.405 31.64z" fill="#5e1914" data-fill-palette-color="accent"></path></g></svg></g></svg></g></svg></g><defs></defs></svg><rect width="395.52" height="123.29629279039861" fill="none" stroke="none" visibility="hidden"></rect></g></svg></g></svg>